<svg width="562" height="354" viewBox="0 0 562 354" fill="none" xmlns="http://www.w3.org/2000/svg">
<path fill-rule="evenodd" clip-rule="evenodd" d="M176.777 0.000167847L176.777 0L141.421 35.3553L35.3553 141.421L0 176.777L35.3553 212.132L141.421 318.198L176.777 353.553L176.777 353.553L176.777 282.843L70.7107 176.777L176.777 70.7107L176.777 70.7108V0.000167847Z" fill="#0D60D5"/>
<path fill-rule="evenodd" clip-rule="evenodd" d="M384.33 354L384.33 354L419.686 318.645L525.752 212.579L561.107 177.223L525.752 141.868L419.686 35.802L384.33 0.446605L384.33 0.446788L384.33 71.1573L490.396 177.223L384.33 283.289L384.33 283.289V354Z" fill="#0D60D5"/>
<path fill-rule="evenodd" clip-rule="evenodd" d="M174.488 176.777L280.554 70.7107L386.62 176.777L306.058 257.339L342.153 291.954L421.975 212.132L457.33 176.777L421.975 141.421L315.909 35.3553L280.554 0L245.198 35.3553L139.132 141.421L103.777 176.777L139.132 212.132L245.198 318.198L280.554 353.553L315.909 318.198L316.691 317.416L280.596 282.8L280.554 282.843L174.488 176.777Z" fill="#0D60D5"/>
</svg>
